HIERARCHY
ROOT Hips
{
     OFFSET 1.88212 96.90440 -13.34250
     CHANNELS 6 Xposition Yposition Zposition Zrotation Xrotation Yrotation
     JOINT Spine
     {
          OFFSET 0.00000 11.89050 0.00000
          CHANNELS 3 Zrotation Xrotation Yrotation
          JOINT Spine1
          {
               OFFSET -0.00000 25.65740 0.12766
               CHANNELS 3 Zrotation Xrotation Yrotation
               JOINT HEad
               {
                    OFFSET 0.00000 8.73416 0.01134
                    CHANNELS 3 Zrotation Xrotation Yrotation
                    End Site
                    {
                         OFFSET -0.29000 12.77420 2.51395
                    }
               }
               JOINT LeftShoulder1
               {
                    OFFSET 8.99000 -0.36225 -0.22000
                    CHANNELS 3 Zrotation Xrotation Yrotation
                    JOINT LeftArm
                    {
                         OFFSET 10.28270 -0.00338 0.32212
                         CHANNELS 3 Zrotation Xrotation Yrotation
                         JOINT LeftForeArm
                         {
                              OFFSET 32.76690 0.09914 -1.42434
                              CHANNELS 3 Zrotation Xrotation Yrotation
                              JOINT LeftHand
                              {
                                   OFFSET 27.56430 0.08536 1.02216
                                   CHANNELS 3 Zrotation Xrotation Yrotation
                                   End Site
                                   {
                                        OFFSET 16.74430 -0.60000 1.50291
                                   }
                              }
                         }
                    }
               }
               JOINT RightShoulder
               {
                    OFFSET -8.99000 -0.36225 -0.22000
                    CHANNELS 3 Zrotation Xrotation Yrotation
                    JOINT RightArm
                    {
                         OFFSET -10.28270 -0.00338 0.32212
                         CHANNELS 3 Zrotation Xrotation Yrotation
                         JOINT RightForeArm
                         {
                              OFFSET -32.89710 0.09914 -1.42434
                              CHANNELS 3 Zrotation Xrotation Yrotation
                              JOINT RightHand
                              {
                                   OFFSET -27.49210 0.08536 1.02216
                                   CHANNELS 3 Zrotation Xrotation Yrotation
                                   End Site
                                   {
                                        OFFSET -16.63120 -0.60000 1.50291
                                   }
                              }
                         }
                    }
               }
          }
     }
     JOINT LeftUpLeg
     {
          OFFSET 8.94580 -8.66707 0.10165
          CHANNELS 3 Zrotation Xrotation Yrotation
          JOINT LeftLeg
          {
               OFFSET 0.00000 -44.42270 1.37270
               CHANNELS 3 Zrotation Xrotation Yrotation
               JOINT LeftFoot
               {
                    OFFSET -0.25355 -42.09240 -1.46059
                    CHANNELS 3 Zrotation Xrotation Yrotation
                    JOINT LeftToes
                    {
                         OFFSET -0.04000 -4.41509 8.49910
                         CHANNELS 3 Zrotation Xrotation Yrotation
                         End Site
                         {
                              OFFSET 0.08000 -0.04745 9.77979
                         }
                    }
               }
          }
     }
     JOINT RightUpLeg
     {
          OFFSET -8.94580 -8.66707 0.10165
          CHANNELS 3 Zrotation Xrotation Yrotation
          JOINT RightLeg
          {
               OFFSET 0.00000 -44.42270 1.37270
               CHANNELS 3 Zrotation Xrotation Yrotation
               JOINT RightFoot
               {
                    OFFSET 0.25355 -42.09240 -1.46059
                    CHANNELS 3 Zrotation Xrotation Yrotation
                    JOINT RightToes
                    {
                         OFFSET 0.04000 -4.41509 8.49910
                         CHANNELS 3 Zrotation Xrotation Yrotation
                         End Site
                         {
                              OFFSET -0.08000 -0.13745 9.77979
                         }
                    }
               }
          }
     }
}
MOTION
Frames: 20
Frame Time: 0.01667
28.73240 95.53684 -12.68547 9.30425 16.34237 120.20720 -9.28158 22.59824 -4.48653 0.02081 -0.00355 -0.01309 -6.11744 -1.20868 27.67024 0.50632 10.18945 -0.63112 -149.58882 -33.76681 -135.53839 -84.07006 66.94763 -34.99086 28.67929 8.50525 -8.74598 11.47777 10.04651 -6.83204 76.37594 -17.88131 89.68948 -12.83115 23.47702 100.80318 20.55017 13.15905 1.46033 0.22493 3.29592 -8.56881 -18.50366 6.50961 76.29774 10.50513 -0.03451 -0.03432 24.20144 43.85774 -71.96592 -22.45986 -1.13899 12.69797 33.41946 19.08773 -51.04136 34.31884 -0.07664 -0.10031 -52.25295 -46.06701 26.48129 
28.26500 96.61662 -12.44887 10.04876 23.04757 115.11337 -16.25822 24.80962 0.14129 0.01845 0.00179 -0.00932 -6.82297 -2.50730 25.92929 0.07861 10.18445 -0.64121 -144.06708 -35.56412 -135.84624 -73.25609 63.72680 -44.35041 29.58557 8.93465 -7.70512 10.11177 10.20710 -6.18993 72.54871 -10.62302 93.83110 -18.91312 21.41842 98.79165 21.75438 -2.48819 21.32630 -3.43573 1.34869 -0.39557 -23.74414 17.11404 71.03997 5.28232 -0.15461 -0.17556 27.00689 54.60028 -61.19345 -28.88445 1.22356 19.18912 32.53614 16.40645 -50.25143 41.38852 -0.08380 -0.08725 -59.36539 -43.60191 26.11830 
27.82622 97.70448 -12.15149 11.32169 28.76189 110.27554 -22.07592 25.91357 3.98221 0.01516 0.00905 -0.00343 -7.64882 -4.00675 23.15726 -0.61922 10.47992 -0.47058 -135.65271 -39.58108 -134.37410 -59.88113 58.22153 -55.95596 30.34926 9.54360 -6.65086 8.02701 10.71717 -4.92215 68.90320 -3.15884 97.18604 -20.63709 20.71410 97.54539 19.81505 -0.60474 12.27963 -5.23592 -2.10720 7.70607 -27.91322 29.59826 65.14645 -4.15267 -0.42624 -0.31321 8.43623 65.35234 -30.52197 -34.91585 2.89433 24.93278 31.62535 13.72815 -49.31322 48.21892 -0.08769 -0.07375 -66.20309 -41.00264 25.59990 
27.46065 98.79382 -11.82422 12.98890 33.58851 105.60636 -26.70451 26.25030 7.00575 0.01019 0.01539 0.00223 -8.81202 -5.15662 20.88689 -1.58967 10.99973 0.13791 -124.84968 -44.88585 -129.90276 -43.65039 50.63407 -65.33851 30.51728 21.76192 4.40561 5.33954 11.43651 -3.17124 65.59749 4.42071 100.22530 -19.55816 20.65234 96.52734 20.77058 3.86386 7.67166 -5.21363 -6.63014 15.80419 -29.14740 42.98883 58.49785 -22.44501 -0.83551 -0.52618 -23.86724 67.58239 16.96848 -40.43538 4.04867 29.93744 30.67678 11.01820 -48.29018 54.65416 -0.08593 -0.05981 -72.71912 -38.32577 24.91655 
27.18476 99.85263 -11.46081 14.95351 37.63196 101.06159 -30.21761 26.09125 9.28530 0.00004 0.02183 0.00799 -10.24028 -6.02205 19.04927 -2.81355 11.68721 1.19596 -111.02685 -50.19048 -121.09623 -30.05213 39.55879 -69.50607 28.61239 9.33805 -6.80719 2.27963 12.24637 -1.00569 63.76666 8.48462 102.12626 -13.38703 21.26135 96.22882 20.50725 10.07887 -1.27671 -3.44504 -11.82805 24.02899 -25.16537 55.71571 50.48281 -24.48463 -0.10800 -0.04333 -53.90449 57.18582 43.54158 -45.35518 4.86179 34.22283 29.67146 8.30139 -47.25302 60.54791 -0.07763 -0.04796 -78.84750 -35.63860 24.00306 
27.01355 100.83199 -11.09478 17.14613 40.99141 96.62672 -32.73080 25.63930 10.92852 -0.00921 0.02539 0.01153 -11.87789 -6.65017 17.59550 -4.20521 12.48187 2.51135 -93.38303 -53.77931 -107.02421 -19.78287 25.69973 -68.85364 23.71535 18.50011 10.05522 -0.86783 13.06032 1.24897 62.78024 11.07351 103.45567 -9.49241 21.30416 95.40192 23.95996 7.12684 13.55896 0.05690 -17.33064 32.47529 -12.24314 66.44614 36.88237 -48.60576 -0.68918 0.53403 -50.50570 45.92494 52.96658 -50.00308 5.76251 36.74538 28.63520 5.69453 -45.08255 65.70630 -0.06504 -0.04086 -84.50252 -32.94682 22.85381 
26.91203 101.63588 -10.71876 19.50995 43.77004 92.31322 -34.41708 25.04102 12.04486 -0.01719 0.02742 0.01286 -13.66353 -7.07887 16.49533 -5.86297 13.38795 3.99270 -73.15279 -53.77333 -89.10989 -11.87815 9.98165 -65.09235 21.49916 10.06379 -10.30818 -4.02694 13.90901 3.36326 62.22913 13.31822 104.65489 -7.25998 21.39043 94.39987 21.45303 10.55597 3.02862 5.55580 -22.65202 41.23413 4.43919 72.47801 21.89063 -31.34069 0.23013 -0.71596 -80.03490 34.28891 56.66771 -54.19227 6.65087 37.67262 27.69577 3.36851 -42.08872 70.04419 -0.05053 -0.03700 -91.54182 -19.60471 7.61538 
26.84307 102.23129 -10.33654 21.99265 46.04995 88.14899 -35.44448 24.41584 12.72680 -0.01952 0.03146 0.01482 -15.55790 -7.35950 15.72167 -7.70714 14.39744 5.39475 -54.70740 -49.28886 -71.82195 -5.23654 -6.85834 -59.01225 15.44450 11.15542 9.00198 -7.24801 14.80372 5.47373 61.83452 19.11249 106.60660 -9.36672 22.49201 92.67094 23.24752 3.72674 26.61382 13.29373 -27.30126 50.27637 22.54507 75.57584 5.27763 -30.18394 -0.00651 -0.15570 -82.21711 29.12210 50.37608 -57.73433 7.37384 37.14354 26.91116 1.66055 -38.55323 73.60349 -0.03721 -0.03562 -95.11250 -23.52970 14.75062 
26.79518 102.58434 -9.96185 24.54434 47.87897 84.17249 -35.97950 23.84466 13.05614 -0.02518 0.03545 0.01613 -17.48153 -7.53017 15.25904 -9.61380 15.52264 6.69932 -41.52388 -41.15048 -58.55687 1.04450 -24.26388 -51.20034 13.18760 1.36849 -7.17478 -10.34495 15.78333 7.58590 61.50957 22.96452 108.11898 -10.36229 23.24621 91.24443 21.77998 2.46482 20.34703 23.28214 -30.82524 59.37743 44.34027 76.05422 -15.60999 -30.07211 -0.03116 -0.06329 -68.67616 37.95633 45.13638 -60.49770 7.80289 35.28515 26.23412 0.91163 -34.68399 76.51382 -0.02652 -0.03517 -99.00694 -19.07193 11.06815 
26.80165 102.69585 -9.64797 27.14460 49.26321 80.40468 -36.62183 24.47885 13.23447 -0.04623 0.13140 0.00914 -19.20182 -8.84599 14.75019 -10.96267 15.46250 7.70244 -33.87220 -30.88143 -49.35956 6.35507 -41.98518 -42.92917 3.84157 8.26993 6.15506 -12.73150 15.56257 9.29411 60.93430 25.88363 109.21724 -5.72985 23.53859 90.92906 23.08335 9.27315 17.62412 34.94763 -32.86688 67.96432 62.44655 73.73328 -34.69138 -29.49780 -0.02728 -0.09820 -62.91474 44.17933 45.79538 -62.62791 8.11457 33.39196 26.57023 0.70013 -33.44907 78.16122 0.01493 -0.04492 -101.18009 -20.47678 14.60846 
26.92817 102.64552 -9.48114 29.77957 50.19482 76.84215 -37.31343 26.11109 13.42042 -0.04446 0.12621 0.01749 -20.76390 -10.84359 14.09454 -11.48326 14.49604 8.25196 -30.44486 -19.70536 -42.42722 8.85243 -60.14438 -36.95940 3.93610 4.19012 -15.00747 -14.23736 14.41513 10.48749 60.11692 28.32799 109.80458 -3.27154 23.75551 90.73538 21.93732 10.61614 12.04095 47.35873 -33.27295 75.23573 68.67198 70.89186 -43.69085 -25.90613 0.08257 -0.34874 -58.63046 51.19490 42.26124 -64.23447 8.36401 31.56506 26.38343 0.96919 -32.36433 79.83042 -0.00043 -0.05268 -103.07268 -19.96479 15.47432 
27.21924 102.58055 -9.57147 32.37612 50.67546 73.50314 -37.39110 27.39877 13.41425 -0.02282 0.01787 0.01706 -22.30227 -12.18823 13.76399 -11.61879 13.83480 8.74853 -29.66057 -12.18787 -38.69136 4.41437 -75.50266 -35.55272 -0.55305 15.11319 -14.98230 -15.10291 13.56390 11.61339 59.17008 30.50787 109.80370 -2.22099 23.94313 90.93832 22.17664 14.08504 12.06612 59.66575 -32.42208 80.56020 65.95537 69.28961 -45.26987 -28.48749 -0.13334 0.20653 -51.38733 55.76884 38.22529 -65.42845 8.60059 29.88117 25.79937 1.62454 -31.36660 81.49697 -0.00238 -0.04837 -104.28960 -20.58912 17.61186 
27.63485 102.57085 -9.89940 34.83964 50.75396 70.43943 -36.85694 28.34467 13.27106 -0.02246 0.01101 0.01509 -23.77741 -13.08104 13.63080 -11.72750 13.35009 9.37214 -29.92586 -7.36161 -36.43470 -16.89804 -84.49206 -53.60842 5.17326 -3.77238 -18.21560 -15.61634 12.91094 12.67385 58.35472 32.41035 109.43495 -1.99617 24.05674 91.40340 21.01031 14.08047 9.72956 71.33273 -30.85313 83.68934 56.12918 68.98551 -40.20628 -30.93118 -0.16228 0.24609 -48.66323 55.85784 35.84591 -66.29980 8.85425 28.37425 24.89339 2.55739 -30.40445 83.09988 -0.00247 -0.04279 -105.06451 -20.92551 18.96212 
28.10850 102.60475 -10.45100 37.07545 50.49925 67.71956 -35.76863 28.97561 13.00851 -0.02292 0.01206 0.01373 -25.18768 -13.48033 13.69278 -12.07339 13.19464 9.99115 -30.69003 -4.47259 -34.74369 -92.40612 -86.16753 -127.07870 2.71245 6.03380 -23.44785 -16.04492 12.62974 13.65186 57.76647 34.03141 108.83348 -2.22469 24.15849 92.10384 21.04312 15.46990 9.76314 82.02419 -29.01186 84.63433 37.94751 69.16170 -26.56178 -30.11861 0.04387 -0.05776 -50.78008 53.57332 36.38814 -66.90299 9.11927 27.03957 23.74279 3.65541 -29.46074 84.52815 -0.00250 -0.03603 -105.27007 -21.59918 20.50441 
28.58042 102.62271 -11.22538 39.00344 49.97950 65.41566 -34.21324 29.32616 12.62182 -0.02456 0.01534 0.01214 -26.51404 -13.43847 13.92828 -12.80485 13.42839 10.60811 -31.75100 -2.89276 -33.13472 -120.95294 -83.41248 -154.21138 2.82952 2.85664 -21.01785 -16.63238 12.79132 14.54478 57.48971 35.28844 108.10936 -2.59164 24.25645 92.84103 20.33801 14.55576 8.15368 91.42277 -27.21416 83.51778 13.74895 67.40665 -6.00019 -30.03423 0.01331 -0.00069 -51.53184 50.54939 37.30576 -67.27244 9.36696 25.84916 22.44961 4.82619 -28.54608 85.65705 -0.00288 -0.02811 -105.00224 -22.23069 21.72808 
28.97497 102.49509 -12.17101 40.57392 49.25262 63.58427 -32.26938 29.45609 12.08393 -0.02734 0.02167 0.01158 -27.74979 -13.03701 14.31404 -13.80945 14.01379 11.09770 -33.16129 -2.15998 -31.49651 -125.54773 -81.13904 -157.69350 0.77210 8.13098 -22.66288 -17.60123 13.29114 15.46449 57.79742 36.01716 107.18597 -2.80875 24.52195 93.53951 20.42882 14.74134 7.72661 99.16436 -25.65244 80.48516 -8.37211 61.95501 14.25362 -30.03304 0.01083 0.02564 -50.94081 46.62928 37.74136 -67.41483 9.54520 24.76364 21.14548 6.03903 -27.69463 86.37457 -0.00321 -0.01926 -104.26113 -22.93332 22.90612 
29.26741 102.14713 -13.23859 41.76263 48.36781 62.26144 -30.03769 29.40335 11.38102 -0.03077 0.02716 0.01053 -28.87677 -12.33711 14.83497 -15.10174 14.92475 11.51715 -34.80726 -1.93548 -29.83423 -125.19262 -79.55616 -156.51451 -0.55483 5.62217 -2.71898 -18.95630 14.11189 16.31990 58.57583 36.23429 106.23503 -2.70207 24.92185 94.04498 20.04389 13.65063 6.28695 104.98557 -24.49958 75.72585 -23.87761 55.79449 30.21312 -30.04222 -0.00950 0.03349 -47.57307 41.39762 33.84355 -67.33153 9.61110 23.74622 19.96297 7.30196 -26.94368 86.62209 -0.00331 -0.01041 -103.11538 -23.59930 23.92745 
29.43352 101.54189 -14.32307 42.58651 47.37453 61.44857 -28.64609 30.14245 11.16533 -0.08734 0.12136 0.02048 -29.29774 -12.34771 14.73143 -15.74432 15.03189 11.41159 -36.63897 -1.97034 -28.26138 -122.69350 -78.43626 -153.48262 -0.78589 7.58727 -10.84525 -19.60783 14.20972 16.37288 59.43774 36.16775 105.32867 -2.39988 25.38899 94.44971 20.19580 13.32662 5.44172 108.79201 -23.88630 69.45674 -35.46989 49.60176 44.50378 -30.04411 -0.04299 0.04575 -42.61610 32.81831 29.06036 -67.02032 9.54858 22.77472 19.01097 8.64662 -26.33050 86.39011 -0.00338 -0.00237 -101.64123 -24.24430 24.84800 
29.44487 100.71658 -15.26474 43.10738 46.33799 61.09650 -28.22989 31.37348 11.35206 -0.10124 0.10782 0.00863 -28.96036 -12.70882 14.38214 -15.78604 14.73389 11.04965 -38.48817 -2.15662 -26.82544 -123.45878 -78.22375 -149.08711 -2.20847 7.78545 -10.48753 -20.03404 13.82620 15.78048 62.89326 35.01213 99.94903 -2.16881 27.27704 98.51061 19.93185 12.38149 4.10650 110.64594 -23.87876 61.96250 -46.04986 45.92587 57.93380 -27.35630 -0.04823 0.02102 -45.08921 41.02740 33.83475 -66.47833 9.36053 21.84453 18.36463 10.10874 -25.89650 85.68835 -0.00394 0.00428 -99.96358 -24.86749 25.60195 
29.24804 99.79612 -15.90094 43.39345 45.33738 61.11974 -29.08888 33.19204 12.10984 -0.10169 0.08676 -0.00099 -27.81049 -13.63301 13.66733 -14.68162 13.79156 10.27248 -44.16963 -1.62517 -24.86563 -112.40093 -77.61900 -139.05092 -2.75539 8.92447 -17.83754 -19.61617 12.81122 14.32594 66.09822 33.60546 92.72775 -2.26981 28.46623 100.22089 16.64228 5.29836 -9.50280 110.55483 -24.38990 53.82431 -57.74448 43.29931 72.15210 -23.47987 -0.13859 0.23747 -46.76870 50.69932 40.68297 -65.53116 8.20266 21.67304 18.44936 12.43851 -26.67830 84.55403 -0.00705 0.00939 -98.20806 -25.67446 26.12503 
